<svg fill="#FFFFFF" xmlns="http://www.w3.org/2000/svg"  viewBox="0 0 24 24" width="144px" height="144px"><path d="M20.576,19.721l-6.852-9.488l4.552-5.602c0.349-0.429,0.283-1.059-0.146-1.407c-0.427-0.347-1.058-0.283-1.406,0.146	l-4.213,5.185L9.057,3.771C8.707,3.287,8.146,3,7.549,3H4.078C3.42,3,3.039,3.746,3.424,4.279l5.911,8.184l-5.611,6.906	c-0.348,0.429-0.283,1.059,0.146,1.407C4.055,20.927,4.278,21,4.5,21c0.291,0,0.579-0.126,0.777-0.369l5.271-6.488l4.396,6.086	c0.35,0.484,0.91,0.771,1.507,0.771h3.471C20.58,21,20.961,20.254,20.576,19.721z"/></svg>