<svg width="358" height="456" viewBox="0 0 358 456" fill="none" xmlns="http://www.w3.org/2000/svg">
<g clip-path="url(#clip0_4674_66)">
<path fill-rule="evenodd" clip-rule="evenodd" d="M178.5 167C215.779 167 246 197.221 246 234.5C246 271.779 215.779 302 178.5 302C141.221 302 111 271.779 111 234.5C111 197.221 141.221 167 178.5 167Z" fill="#78F899"/>
<path d="M159.309 212.761C159.879 212.078 160.723 211.683 161.613 211.683H190.235C192.971 211.683 194.279 215.045 192.262 216.894L188.152 220.662C187.599 221.169 186.876 221.45 186.125 221.45H158.47C155.926 221.45 154.537 218.482 156.166 216.529L159.309 212.761Z" fill="black"/>
<path d="M196.508 255.974C195.939 256.607 195.128 256.969 194.276 256.969H164.806C162.1 256.969 160.777 253.669 162.734 251.8L166.679 248.032C167.237 247.499 167.979 247.202 168.751 247.202H197.659C200.255 247.202 201.625 250.275 199.891 252.206L196.508 255.974Z" fill="black"/>
<path d="M204.608 226.034C204.608 226.927 204.21 227.774 203.522 228.344L188.569 240.739C188.031 241.185 187.354 241.429 186.655 241.429H183.162C180.408 241.429 179.109 238.029 181.163 236.193L199.608 219.704C201.541 217.976 204.608 219.348 204.608 221.94V226.034Z" fill="black"/>
<path d="M152.275 241.666C152.239 240.684 152.686 239.745 153.473 239.155L168.288 228.044C168.808 227.654 169.439 227.444 170.088 227.444H172.688C175.453 227.444 176.746 230.867 174.671 232.695L157.408 247.903C155.509 249.576 152.52 248.292 152.427 245.763L152.275 241.666Z" fill="black"/>
<path fill-rule="evenodd" clip-rule="evenodd" d="M193.923 186.97C192.401 186.484 191.156 187.388 191.156 188.986V192.916C191.156 193.987 191.964 195.207 192.97 195.576C209.126 201.493 220.688 217.022 220.688 235.203C220.688 253.384 209.126 268.913 192.97 274.831C191.867 275.235 191.156 276.316 191.156 277.491V281.421C191.156 283.018 192.401 283.922 193.923 283.436C214.34 276.912 229.125 257.785 229.125 235.203C229.125 212.622 214.34 193.494 193.923 186.97ZM165.844 188.986C165.844 187.388 164.599 186.484 163.077 186.97C142.66 193.494 127.875 212.622 127.875 235.203C127.875 257.785 142.66 276.912 163.077 283.436C164.599 283.922 165.844 283.018 165.844 281.421V277.491C165.844 276.419 165.036 275.199 164.03 274.831C147.874 268.913 136.312 253.384 136.312 235.203C136.312 217.023 147.874 201.493 164.03 195.576C165.036 195.207 165.844 193.987 165.844 192.916V188.986Z" fill="black"/>
<path fill-rule="evenodd" clip-rule="evenodd" d="M193.923 186.97C192.401 186.484 191.156 187.388 191.156 188.986V192.916C191.156 193.987 191.964 195.207 192.97 195.576C209.126 201.493 220.688 217.022 220.688 235.203C220.688 253.384 209.126 268.913 192.97 274.831C191.867 275.235 191.156 276.316 191.156 277.491V281.421C191.156 283.018 192.401 283.922 193.923 283.436C214.34 276.912 229.125 257.785 229.125 235.203C229.125 212.622 214.34 193.494 193.923 186.97ZM165.844 188.986C165.844 187.388 164.599 186.484 163.077 186.97C142.66 193.494 127.875 212.622 127.875 235.203C127.875 257.785 142.66 276.912 163.077 283.436C164.599 283.922 165.844 283.018 165.844 281.421V277.491C165.844 276.419 165.036 275.199 164.03 274.831C147.874 268.913 136.312 253.384 136.312 235.203C136.312 217.023 147.874 201.493 164.03 195.576C165.036 195.207 165.844 193.987 165.844 192.916V188.986Z" fill="black"/>
</g>
<ellipse cx="179" cy="425" rx="179" ry="31" fill="#818181"/>
<mask id="path-8-outside-1_4674_66" maskUnits="userSpaceOnUse" x="110" y="333" width="137" height="87" fill="black">
<rect fill="white" x="110" y="333" width="137" height="87"/>
<path fill-rule="evenodd" clip-rule="evenodd" d="M178.5 334C215.779 334 246 364.221 246 401.5C246 407.552 245.203 413.419 243.709 419H226.272C228.12 413.744 229.125 408.091 229.125 402.203C229.125 379.622 214.34 360.494 193.923 353.97C192.401 353.484 191.156 354.388 191.156 355.986V359.916C191.156 360.987 191.964 362.207 192.97 362.575C209.126 368.493 220.687 384.022 220.687 402.203C220.687 408.17 219.442 413.851 217.198 419H200.062C201.528 417.064 200.164 414.202 197.659 414.202H168.751C167.979 414.202 167.237 414.499 166.679 415.032L162.734 418.8C162.666 418.865 162.602 418.932 162.542 419H139.802C137.558 413.851 136.312 408.17 136.312 402.203C136.312 384.022 147.874 368.493 164.03 362.575C165.036 362.207 165.844 360.987 165.844 359.916V355.986C165.844 354.388 164.599 353.484 163.077 353.97C142.659 360.494 127.875 379.622 127.875 402.203C127.875 408.091 128.88 413.744 130.728 419H113.291C111.797 413.419 111 407.552 111 401.5C111 364.221 141.221 334 178.5 334ZM159.309 379.761C159.879 379.078 160.723 378.683 161.612 378.683H190.235C192.971 378.683 194.279 382.045 192.262 383.894L188.152 387.662C187.598 388.169 186.875 388.45 186.124 388.45H158.469C155.925 388.45 154.536 385.482 156.166 383.529L159.309 379.761ZM204.607 393.034C204.607 393.927 204.209 394.774 203.521 395.344L188.568 407.739C188.03 408.185 187.353 408.43 186.653 408.43H183.161C180.407 408.43 179.108 405.029 181.162 403.193L199.607 386.704C201.54 384.976 204.607 386.348 204.607 388.94V393.034ZM153.472 406.156C152.686 406.746 152.238 407.684 152.275 408.667L152.426 412.763C152.52 415.292 155.509 416.576 157.407 414.904L174.671 399.695C176.746 397.867 175.453 394.444 172.688 394.444H170.088C169.439 394.444 168.807 394.655 168.288 395.044L153.472 406.156Z"/>
</mask>
<path fill-rule="evenodd" clip-rule="evenodd" d="M178.5 334C215.779 334 246 364.221 246 401.5C246 407.552 245.203 413.419 243.709 419H226.272C228.12 413.744 229.125 408.091 229.125 402.203C229.125 379.622 214.34 360.494 193.923 353.97C192.401 353.484 191.156 354.388 191.156 355.986V359.916C191.156 360.987 191.964 362.207 192.97 362.575C209.126 368.493 220.687 384.022 220.687 402.203C220.687 408.17 219.442 413.851 217.198 419H200.062C201.528 417.064 200.164 414.202 197.659 414.202H168.751C167.979 414.202 167.237 414.499 166.679 415.032L162.734 418.8C162.666 418.865 162.602 418.932 162.542 419H139.802C137.558 413.851 136.312 408.17 136.312 402.203C136.312 384.022 147.874 368.493 164.03 362.575C165.036 362.207 165.844 360.987 165.844 359.916V355.986C165.844 354.388 164.599 353.484 163.077 353.97C142.659 360.494 127.875 379.622 127.875 402.203C127.875 408.091 128.88 413.744 130.728 419H113.291C111.797 413.419 111 407.552 111 401.5C111 364.221 141.221 334 178.5 334ZM159.309 379.761C159.879 379.078 160.723 378.683 161.612 378.683H190.235C192.971 378.683 194.279 382.045 192.262 383.894L188.152 387.662C187.598 388.169 186.875 388.45 186.124 388.45H158.469C155.925 388.45 154.536 385.482 156.166 383.529L159.309 379.761ZM204.607 393.034C204.607 393.927 204.209 394.774 203.521 395.344L188.568 407.739C188.03 408.185 187.353 408.43 186.653 408.43H183.161C180.407 408.43 179.108 405.029 181.162 403.193L199.607 386.704C201.54 384.976 204.607 386.348 204.607 388.94V393.034ZM153.472 406.156C152.686 406.746 152.238 407.684 152.275 408.667L152.426 412.763C152.52 415.292 155.509 416.576 157.407 414.904L174.671 399.695C176.746 397.867 175.453 394.444 172.688 394.444H170.088C169.439 394.444 168.807 394.655 168.288 395.044L153.472 406.156Z" fill="#78F899"/>
<path d="M243.709 419V419.5H244.093L244.192 419.129L243.709 419ZM226.272 419L225.8 418.834L225.566 419.5H226.272V419ZM193.923 353.97L194.075 353.494L194.075 353.494L193.923 353.97ZM192.97 362.575L192.798 363.045L192.798 363.045L192.97 362.575ZM217.198 419V419.5H217.526L217.657 419.2L217.198 419ZM200.062 419L199.663 418.698L199.055 419.5H200.062V419ZM166.679 415.032L167.024 415.394L167.024 415.394L166.679 415.032ZM162.734 418.8L162.389 418.438L162.389 418.438L162.734 418.8ZM162.542 419V419.5H162.768L162.917 419.331L162.542 419ZM139.802 419L139.343 419.2L139.474 419.5H139.802V419ZM164.03 362.575L164.202 363.045L164.202 363.045L164.03 362.575ZM163.077 353.97L162.925 353.494L162.925 353.494L163.077 353.97ZM130.728 419V419.5H131.434L131.2 418.834L130.728 419ZM113.291 419L112.808 419.129L112.907 419.5H113.291V419ZM159.309 379.761L158.925 379.441L158.925 379.441L159.309 379.761ZM192.262 383.894L192.6 384.263L192.6 384.263L192.262 383.894ZM188.152 387.662L188.489 388.03L188.489 388.03L188.152 387.662ZM156.166 383.529L155.782 383.208L155.782 383.208L156.166 383.529ZM203.521 395.344L203.202 394.959L203.202 394.959L203.521 395.344ZM188.568 407.739L188.887 408.124L188.887 408.124L188.568 407.739ZM181.162 403.193L180.828 402.82L180.828 402.82L181.162 403.193ZM199.607 386.704L199.94 387.076L199.94 387.076L199.607 386.704ZM152.275 408.667L151.775 408.685L151.775 408.685L152.275 408.667ZM153.472 406.156L153.172 405.756L153.172 405.756L153.472 406.156ZM152.426 412.763L152.926 412.745L152.926 412.745L152.426 412.763ZM157.407 414.904L157.077 414.528L157.077 414.528L157.407 414.904ZM174.671 399.695L174.34 399.32L174.34 399.32L174.671 399.695ZM168.288 395.044L168.588 395.444L168.588 395.444L168.288 395.044ZM246.5 401.5C246.5 363.945 216.055 333.5 178.5 333.5V334.5C215.503 334.5 245.5 364.497 245.5 401.5H246.5ZM244.192 419.129C245.698 413.506 246.5 407.596 246.5 401.5H245.5C245.5 407.508 244.709 413.331 243.226 418.871L244.192 419.129ZM226.272 419.5H243.709V418.5H226.272V419.5ZM228.625 402.203C228.625 408.034 227.63 413.631 225.8 418.834L226.743 419.166C228.61 413.857 229.625 408.148 229.625 402.203H228.625ZM193.771 354.447C213.987 360.906 228.625 379.846 228.625 402.203H229.625C229.625 379.398 214.694 360.082 194.075 353.494L193.771 354.447ZM191.656 355.986C191.656 355.319 191.912 354.856 192.263 354.601C192.615 354.345 193.135 354.244 193.771 354.447L194.075 353.494C193.189 353.211 192.326 353.318 191.675 353.792C191.023 354.266 190.656 355.054 190.656 355.986H191.656ZM191.656 359.916V355.986H190.656V359.916H191.656ZM193.142 362.106C192.76 361.966 192.384 361.649 192.1 361.229C191.817 360.81 191.656 360.333 191.656 359.916H190.656C190.656 360.57 190.9 361.239 191.271 361.789C191.643 362.339 192.174 362.816 192.798 363.045L193.142 362.106ZM221.187 402.203C221.187 383.805 209.488 368.093 193.142 362.106L192.798 363.045C208.764 368.893 220.187 384.239 220.187 402.203H221.187ZM217.657 419.2C219.927 413.989 221.187 408.24 221.187 402.203H220.187C220.187 408.1 218.957 413.713 216.74 418.8L217.657 419.2ZM200.062 419.5H217.198V418.5H200.062V419.5ZM197.659 414.702C199.745 414.702 200.884 417.086 199.663 418.698L200.46 419.302C202.173 417.042 200.584 413.702 197.659 413.702V414.702ZM168.751 414.702H197.659V413.702H168.751V414.702ZM167.024 415.394C167.489 414.95 168.108 414.702 168.751 414.702V413.702C167.851 413.702 166.985 414.049 166.334 414.671L167.024 415.394ZM163.08 419.162L167.024 415.394L166.334 414.671L162.389 418.438L163.08 419.162ZM162.917 419.331C162.968 419.273 163.022 419.217 163.08 419.162L162.389 418.438C162.311 418.513 162.237 418.59 162.167 418.669L162.917 419.331ZM139.802 419.5H162.542V418.5H139.802V419.5ZM135.812 402.203C135.812 408.24 137.072 413.989 139.343 419.2L140.26 418.8C138.043 413.713 136.812 408.1 136.812 402.203H135.812ZM163.858 362.106C147.512 368.093 135.812 383.805 135.812 402.203H136.812C136.812 384.24 148.236 368.893 164.202 363.045L163.858 362.106ZM165.344 359.916C165.344 360.333 165.183 360.81 164.9 361.229C164.616 361.649 164.24 361.966 163.858 362.106L164.202 363.045C164.826 362.816 165.357 362.339 165.728 361.789C166.1 361.239 166.344 360.57 166.344 359.916H165.344ZM165.344 355.986V359.916H166.344V355.986H165.344ZM163.229 354.447C163.865 354.244 164.385 354.345 164.737 354.601C165.088 354.856 165.344 355.319 165.344 355.986H166.344C166.344 355.054 165.977 354.266 165.325 353.792C164.674 353.318 163.811 353.211 162.925 353.494L163.229 354.447ZM128.375 402.203C128.375 379.846 143.013 360.906 163.229 354.447L162.925 353.494C142.306 360.082 127.375 379.398 127.375 402.203H128.375ZM131.2 418.834C129.37 413.631 128.375 408.034 128.375 402.203H127.375C127.375 408.148 128.39 413.857 130.256 419.166L131.2 418.834ZM113.291 419.5H130.728V418.5H113.291V419.5ZM110.5 401.5C110.5 407.596 111.302 413.506 112.808 419.129L113.774 418.871C112.291 413.331 111.5 407.508 111.5 401.5H110.5ZM178.5 333.5C140.945 333.5 110.5 363.945 110.5 401.5H111.5C111.5 364.497 141.497 334.5 178.5 334.5V333.5ZM161.612 378.183C160.574 378.183 159.59 378.644 158.925 379.441L159.693 380.081C160.168 379.512 160.871 379.183 161.612 379.183V378.183ZM190.235 378.183H161.612V379.183H190.235V378.183ZM192.6 384.263C194.953 382.106 193.427 378.183 190.235 378.183V379.183C192.515 379.183 193.605 381.985 191.924 383.526L192.6 384.263ZM188.489 388.03L192.6 384.263L191.924 383.526L187.814 387.293L188.489 388.03ZM186.124 388.95C187 388.95 187.844 388.622 188.489 388.03L187.814 387.293C187.353 387.716 186.75 387.95 186.124 387.95V388.95ZM158.469 388.95H186.124V387.95H158.469V388.95ZM155.782 383.208C153.88 385.488 155.501 388.95 158.469 388.95V387.95C156.349 387.95 155.191 385.477 156.55 383.849L155.782 383.208ZM158.925 379.441L155.782 383.208L156.55 383.849L159.693 380.081L158.925 379.441ZM203.84 395.729C204.642 395.064 205.107 394.076 205.107 393.034H204.107C204.107 393.778 203.775 394.484 203.202 394.959L203.84 395.729ZM188.887 408.124L203.84 395.729L203.202 394.959L188.249 407.354L188.887 408.124ZM186.653 408.93C187.469 408.93 188.259 408.645 188.887 408.124L188.249 407.354C187.8 407.726 187.236 407.93 186.653 407.93V408.93ZM183.161 408.93H186.653V407.93H183.161V408.93ZM180.828 402.82C178.433 404.962 179.947 408.93 183.161 408.93V407.93C180.866 407.93 179.784 405.096 181.495 403.566L180.828 402.82ZM199.274 386.331L180.828 402.82L181.495 403.566L199.94 387.076L199.274 386.331ZM205.107 388.94C205.107 385.916 201.529 384.315 199.274 386.331L199.94 387.076C201.551 385.637 204.107 386.78 204.107 388.94H205.107ZM205.107 393.034V388.94H204.107V393.034H205.107ZM152.774 408.648C152.744 407.829 153.117 407.047 153.772 406.556L153.172 405.756C152.255 406.444 151.732 407.539 151.775 408.685L152.774 408.648ZM152.926 412.745L152.774 408.648L151.775 408.685L151.927 412.782L152.926 412.745ZM157.077 414.528C155.495 415.922 153.004 414.852 152.926 412.745L151.927 412.782C152.036 415.732 155.523 417.23 157.738 415.279L157.077 414.528ZM174.34 399.32L157.077 414.528L157.738 415.279L175.001 400.07L174.34 399.32ZM172.688 394.944C174.992 394.944 176.069 397.797 174.34 399.32L175.001 400.07C177.422 397.938 175.914 393.944 172.688 393.944V394.944ZM170.088 394.944H172.688V393.944H170.088V394.944ZM168.588 395.444C169.021 395.12 169.547 394.944 170.088 394.944V393.944C169.331 393.944 168.594 394.19 167.988 394.644L168.588 395.444ZM153.772 406.556L168.588 395.444L167.988 394.644L153.172 405.756L153.772 406.556Z" fill="#23F98A" mask="url(#path-8-outside-1_4674_66)"/>
<g clip-path="url(#clip1_4674_66)">
<path fill-rule="evenodd" clip-rule="evenodd" d="M178.5 0C215.779 0 246 30.2207 246 67.5C246 104.779 215.779 135 178.5 135C141.221 135 111 104.779 111 67.5C111 30.2207 141.221 0 178.5 0Z" fill="#78F899"/>
<path d="M159.309 45.7609C159.879 45.0776 160.723 44.6826 161.613 44.6826H190.235C192.971 44.6826 194.279 48.0453 192.262 49.8941L188.152 53.6617C187.599 54.1689 186.876 54.4503 186.125 54.4503H158.47C155.926 54.4503 154.537 51.4822 156.166 49.5285L159.309 45.7609Z" fill="black"/>
<path d="M196.508 88.9736C195.939 89.6073 195.128 89.9693 194.276 89.9693H164.806C162.1 89.9693 160.777 86.669 162.734 84.7999L166.679 81.0323C167.237 80.4991 167.979 80.2017 168.751 80.2017H197.659C200.255 80.2017 201.625 83.2746 199.891 85.206L196.508 88.9736Z" fill="black"/>
<path d="M204.608 59.0341C204.608 59.9272 204.21 60.7738 203.522 61.3437L188.569 73.7391C188.031 74.1853 187.354 74.4295 186.655 74.4295H183.162C180.408 74.4295 179.109 71.0286 181.163 69.1929L199.608 52.7035C201.541 50.9757 204.608 52.3476 204.608 54.9401V59.0341Z" fill="black"/>
<path d="M152.275 74.6664C152.239 73.6836 152.686 72.7454 153.473 72.1554L168.288 61.0438C168.808 60.6544 169.439 60.4438 170.088 60.4438H172.688C175.453 60.4438 176.746 63.8671 174.671 65.6949L157.408 80.9032C155.509 82.5757 152.52 81.2915 152.427 78.7632L152.275 74.6664Z" fill="black"/>
<path fill-rule="evenodd" clip-rule="evenodd" d="M193.923 19.9705C192.401 19.4842 191.156 20.3876 191.156 21.9857V25.9158C191.156 26.9873 191.964 28.2068 192.97 28.5755C209.126 34.493 220.688 50.0223 220.688 68.2033C220.688 86.3844 209.126 101.913 192.97 107.831C191.867 108.235 191.156 109.316 191.156 110.491V114.421C191.156 116.018 192.401 116.922 193.923 116.436C214.34 109.912 229.125 90.7846 229.125 68.2033C229.125 45.6221 214.34 26.4939 193.923 19.9705ZM165.844 21.9857C165.844 20.3876 164.599 19.4842 163.077 19.9705C142.66 26.4939 127.875 45.6218 127.875 68.2033C127.875 90.7849 142.66 109.912 163.077 116.436C164.599 116.922 165.844 116.018 165.844 114.421V110.491C165.844 109.419 165.036 108.199 164.03 107.831C147.874 101.913 136.312 86.3841 136.312 68.2033C136.312 50.0225 147.874 34.493 164.03 28.5755C165.036 28.2068 165.844 26.9873 165.844 25.9158V21.9857Z" fill="black"/>
<path fill-rule="evenodd" clip-rule="evenodd" d="M193.923 19.9705C192.401 19.4842 191.156 20.3876 191.156 21.9857V25.9158C191.156 26.9873 191.964 28.2068 192.97 28.5755C209.126 34.493 220.688 50.0223 220.688 68.2033C220.688 86.3844 209.126 101.913 192.97 107.831C191.867 108.235 191.156 109.316 191.156 110.491V114.421C191.156 116.018 192.401 116.922 193.923 116.436C214.34 109.912 229.125 90.7846 229.125 68.2033C229.125 45.6221 214.34 26.4939 193.923 19.9705ZM165.844 21.9857C165.844 20.3876 164.599 19.4842 163.077 19.9705C142.66 26.4939 127.875 45.6218 127.875 68.2033C127.875 90.7849 142.66 109.912 163.077 116.436C164.599 116.922 165.844 116.018 165.844 114.421V110.491C165.844 109.419 165.036 108.199 164.03 107.831C147.874 101.913 136.312 86.3841 136.312 68.2033C136.312 50.0225 147.874 34.493 164.03 28.5755C165.036 28.2068 165.844 26.9873 165.844 25.9158V21.9857Z" fill="black"/>
</g>
<defs>
<clipPath id="clip0_4674_66">
<rect width="135" height="135" fill="white" transform="translate(111 167)"/>
</clipPath>
<clipPath id="clip1_4674_66">
<rect width="135" height="135" fill="white" transform="translate(111)"/>
</clipPath>
</defs>
</svg>
