<svg width="224" height="224" viewBox="0 0 224 224" fill="none" xmlns="http://www.w3.org/2000/svg">
<g clip-path="url(#clip0_4093_27)">
<path fill-rule="evenodd" clip-rule="evenodd" d="M111.788 0C173.527 0 223.576 50.0491 223.576 111.788C223.576 173.527 173.527 223.576 111.788 223.576C50.0491 223.576 0 173.527 0 111.788C0 50.0491 50.0491 0 111.788 0Z" fill="#78F899"/>
<path d="M80.5952 75.0782C81.1652 74.395 82.009 74 82.8988 74H136.282C139.018 74 140.326 77.3627 138.309 79.2115L127.208 89.3879C126.654 89.8951 125.931 90.1764 125.181 90.1764H74.4095C71.8652 90.1764 70.476 87.2084 72.1058 85.2547L80.5952 75.0782Z" fill="black"/>
<path d="M141.025 148.004C140.456 148.638 139.645 149 138.793 149H84.1995C81.4935 149 80.1705 145.699 82.1273 143.83L92.7814 133.654C93.3395 133.121 94.0816 132.823 94.8535 132.823H147.931C150.526 132.823 151.897 135.896 150.163 137.828L141.025 148.004Z" fill="black"/>
<path d="M155.024 98.6925C155.024 99.5856 154.626 100.432 153.938 101.002L127.916 122.574C127.377 123.02 126.7 123.264 126.001 123.264H114.352C111.598 123.264 110.299 119.863 112.353 118.027L150.025 84.351C151.957 82.6232 155.024 83.9951 155.024 86.5876V98.6925Z" fill="black"/>
<path d="M68.3174 122.627C68.281 121.645 68.7286 120.706 69.5153 120.116L95.4004 100.703C95.9197 100.313 96.5513 100.103 97.2004 100.103H107.374C110.139 100.103 111.432 103.526 109.357 105.354L73.7415 136.729C71.843 138.402 68.8541 137.118 68.7604 134.589L68.3174 122.627Z" fill="black"/>
<path fill-rule="evenodd" clip-rule="evenodd" d="M137.33 33.0734C134.81 32.2681 132.748 33.7643 132.748 36.4108V42.9195C132.748 44.6941 134.086 46.7138 135.752 47.3244C162.508 57.1245 181.655 82.8428 181.655 112.953C181.655 143.063 162.508 168.78 135.752 178.581C133.925 179.25 132.748 181.04 132.748 182.986V189.494C132.748 192.14 134.81 193.637 137.33 192.832C171.144 182.028 195.629 150.35 195.629 112.953C195.629 75.5555 171.144 43.877 137.33 33.0734ZM90.8278 36.4108C90.8278 33.7643 88.7665 32.2681 86.2458 33.0734C52.4319 43.877 27.9468 75.5551 27.9468 112.953C27.9468 150.351 52.4319 182.028 86.2458 192.832C88.7665 193.637 90.8278 192.14 90.8278 189.494V182.986C90.8278 181.211 89.4903 179.191 87.824 178.581C61.0676 168.78 41.9203 143.062 41.9203 112.953C41.9203 82.8432 61.0676 57.1245 87.824 47.3244C89.4903 46.7137 90.8278 44.6941 90.8278 42.9195V36.4108Z" fill="black"/>
<path fill-rule="evenodd" clip-rule="evenodd" d="M137.33 33.0734C134.81 32.2681 132.748 33.7643 132.748 36.4108V42.9195C132.748 44.6941 134.086 46.7138 135.752 47.3244C162.508 57.1245 181.655 82.8428 181.655 112.953C181.655 143.063 162.508 168.78 135.752 178.581C133.925 179.25 132.748 181.04 132.748 182.986V189.494C132.748 192.14 134.81 193.637 137.33 192.832C171.144 182.028 195.629 150.35 195.629 112.953C195.629 75.5555 171.144 43.877 137.33 33.0734ZM90.8278 36.4108C90.8278 33.7643 88.7665 32.2681 86.2458 33.0734C52.4319 43.877 27.9468 75.5551 27.9468 112.953C27.9468 150.351 52.4319 182.028 86.2458 192.832C88.7665 193.637 90.8278 192.14 90.8278 189.494V182.986C90.8278 181.211 89.4903 179.191 87.824 178.581C61.0676 168.78 41.9203 143.062 41.9203 112.953C41.9203 82.8432 61.0676 57.1245 87.824 47.3244C89.4903 46.7137 90.8278 44.6941 90.8278 42.9195V36.4108Z" fill="black"/>
</g>
<defs>
<clipPath id="clip0_4093_27">
<rect width="223.576" height="223.576" fill="white"/>
</clipPath>
</defs>
</svg>
